G04 (created by PCBNEW (2013-jul-07)-stable) date Di 21 Apr 2015 15:39:39 CEST*
%MOIN*%
G04 Gerber Fmt 3.4, Leading zero omitted, Abs format*
%FSLAX34Y34*%
G01*
G70*
G90*
G04 APERTURE LIST*
%ADD10C,0.00590551*%
%ADD11R,0.06X0.06*%
%ADD12C,0.06*%
%ADD13C,0.0591*%
%ADD14C,0.1181*%
%ADD15C,0.055*%
%ADD16R,0.055X0.055*%
%ADD17C,0.066*%
G04 APERTURE END LIST*
G54D10*
G54D11*
X26500Y-27500D03*
G54D12*
X25500Y-27500D03*
G54D13*
X28100Y-24000D03*
X29100Y-24000D03*
X29900Y-24000D03*
X30900Y-24000D03*
G54D14*
X26900Y-22950D03*
X32300Y-22950D03*
G54D15*
X34000Y-37500D03*
X32000Y-37500D03*
X34000Y-34500D03*
X32000Y-34500D03*
X25000Y-34500D03*
X27000Y-34500D03*
X25000Y-37500D03*
X27000Y-37500D03*
X30000Y-26500D03*
X30000Y-29500D03*
X29000Y-26500D03*
X29000Y-29500D03*
X31000Y-29500D03*
X31000Y-26500D03*
X27000Y-30500D03*
X27000Y-33500D03*
G54D11*
X28500Y-36500D03*
G54D12*
X29500Y-36500D03*
X30500Y-36500D03*
G54D16*
X28000Y-33500D03*
G54D15*
X29000Y-33500D03*
X30000Y-33500D03*
X31000Y-33500D03*
X31000Y-30500D03*
X30000Y-30500D03*
X29000Y-30500D03*
X28000Y-30500D03*
G54D16*
X29000Y-25500D03*
G54D15*
X26000Y-25500D03*
G54D16*
X30000Y-25500D03*
G54D15*
X33000Y-25500D03*
X28000Y-28500D03*
X28000Y-29500D03*
X32000Y-30500D03*
X32000Y-33500D03*
G54D17*
X32500Y-27500D03*
X33500Y-27500D03*
M02*
